<?xml version="1.0" encoding="utf-8"?>
<!-- Generator: Adobe Illustrator 23.0.3, SVG Export Plug-In . SVG Version: 6.00 Build 0)  -->
<svg version="1.1" id="Capa_1" xmlns="http://www.w3.org/2000/svg" xmlns:xlink="http://www.w3.org/1999/xlink" x="0px" y="0px"
	 viewBox="0 0 1200 1200" enable-background="new 0 0 1200 1200" xml:space="preserve">
<g>
	<path d="M1148.74,236.979c-3.884-10.173-15.099-14.23-33.3-12.056l-73.585,5.39c2.521-1.217,5.13-2.492,7.883-3.854
		c24.315-12.086,39.763-31.938,44.661-57.442c2.319-12.085-1.913-18.693-5.883-22.084c-12.781-11.012-39.473-3.593-61.325,4.087
		l-0.261,0.116c-59.181,20.838-113.203,38.517-175.224,43.675l-1.246,0.116c-29.822,2.464-85.322,7.043-101.349,41.937
		c-9.187,19.94-0.464,33.3,7.245,45.096c3.825,5.854,7.448,11.39,9.332,17.882c1.797,6.202,1.507,10.52-0.899,12.896
		c-5.999,5.999-25.214,4.463-41.067-0.173c-0.116-0.029-0.203-0.058-0.319-0.087c-0.492-0.116-50.631-12.781-67.121-48.806
		l-23.127-67.875c-0.058-0.174-0.145-0.347-0.203-0.492c-1.333-3.13-2.695-6.086-4.115-9.014
		c29.069-3.768,69.556-27.851,83.294-39.734c5.448-4.724,7.651-8.173,7.651-11.854c0-2.666-1.449-5.129-3.797-6.376
		c-2.347-1.275-5.188-1.159-7.419,0.319c-15.244,10.028-92.133,5.477-137.142,0.26c-30.866-5.101-61.528,3.855-80.859,23.939
		c-2.666,2.782-5.072,5.767-7.216,8.898c-32.489-9.622-75.7,26.576-77.642,28.199c-2.174,1.884-3.072,4.84-2.26,7.593
		c0.84,2.754,3.217,4.782,6.057,5.13c24.49,3.043,61.847,10.521,69.614,17.679c2.956,4.376,6.666,8.666,10.839,13.476l0.348,0.406
		c5.825,6.753,14.636,12.317,23.185,17.707c12.114,7.681,24.663,15.593,24.344,24.316c-0.029,1.449-0.232,2.869-0.521,4.26
		c-0.377,1.275-0.725,2.521-1.072,3.826c-8.115,22.49-44.806,36.952-59.963,40.98c-15.882,4.608-35.068,6.173-41.096,0.174
		c-2.377-2.377-2.666-6.724-0.87-12.897c1.884-6.492,5.478-12.027,9.332-17.911c7.68-11.766,16.404-25.127,7.245-45.095
		c-16.027-34.865-71.556-39.473-101.349-41.937l-1.246-0.087c-62.05-5.159-116.043-22.838-175.224-43.676l-0.29-0.116
		c-21.823-7.68-48.515-15.128-61.296-4.115c-3.971,3.42-8.202,10.028-5.883,22.084c5.217,27.185,24.75,47.674,49.269,61.267
		l-70.31-5.333c-18.201-2.174-29.417,1.884-33.3,12.027c-7.449,19.418,20.055,49.125,32.256,57.674
		c33.184,23.243,77.729,46.921,121.579,46.921c0.232,0,0.435,0,0.638,0l-64.484,38.836c-1.652,1.014-2.84,2.637-3.304,4.521
		c-3.13,13.042,0.986,23.938,11.883,31.561c26.518,18.519,91.466,13.65,131.461,3.912l-28.808,31.097
		c-0.579,0.638-1.014,1.363-1.362,2.116c-4.405,10.521-1.971,18.52,0.841,23.359c8.375,14.463,29.88,19.969,46.458,22.055
		c28.286,3.536,59.181-2.087,91.901-16.694c6.984,8.086,23.417,23.562,49.211,27.504c4.086,0.609,8.231,0.928,12.404,0.928
		c22.953,0,47.356-9.448,72.773-28.141c6.55,18.722,17.418,34.98,30.663,46.487c0.058,29.01-10.694,45.472-26.866,70.078
		l-0.609,0.928c-11.419,17.389-20.113,36.139-25.823,55.674c-17.853,61.006-3.333,127.085,40.922,186.063
		c2.406,3.188,6.956,3.826,10.144,1.449c3.188-2.406,3.855-6.956,1.449-10.144c0-0.029,0-0.029,0-0.029
		c-4.695-6.26-1.797-26.548,7.014-36.517c5.043-5.738,8.955-4.666,12.144-2.84c43.53,24.896,25.561,95.582,19.012,116.652
		c-0.696,2.174-0.319,4.521,1.014,6.376c1.304,1.826,3.391,2.956,5.651,3.043c0.232,0,0.435,0,0.638,0
		c2.609,0,4.898-1.101,18.549-16.432c7.622-8.55,19.186-22.635,31.039-41.039c20.954-32.546,46.863-85.264,51.182-151.516
		c0.029-0.116,0.029-0.261,0.029-0.377c0.986-64.339-14.838-128.07-47.008-189.483c11.506-12.462,20.055-28.46,25.591-47.82
		c25.562,19.737,49.501,29.706,71.44,29.706c5.043,0,9.999-0.521,14.81-1.564c24.084-5.246,38.459-22.2,44.69-31.416
		c32.459,14.375,63.122,19.911,91.176,16.374c16.404-2.058,37.705-7.477,46.255-21.649c4.058-6.724,4.579-14.549,1.507-22.607
		c-0.318-0.84-0.811-1.651-1.42-2.318l-29.445-32.112c39.995,9.767,105.146,14.723,131.693-3.825
		c10.926-7.623,15.041-18.549,11.883-31.591c-0.435-1.884-1.623-3.507-3.304-4.492l-64.484-38.835c0.232,0,0.435,0,0.638,0
		c43.878,0,88.423-23.678,121.607-46.921C1128.685,286.103,1156.189,256.397,1148.74,236.979z M473.06,185.653
		c-1.217,5.854-1.565,10.839-1.188,15.302c-13.186-4.579-30.083-7.97-42.98-10.086c13.795-8.985,32.865-18.346,47.414-15.882
		C474.915,178.436,473.813,182.001,473.06,185.653z M775.05,322.997c4.405-4.405,8.753-12.665,4.55-27.185
		c-2.492-8.578-7.072-15.592-11.1-21.794c-7.274-11.1-12.057-18.432-6.231-31.126c12.52-27.156,62.513-31.3,89.38-33.532
		l1.246-0.116c5.449-0.434,10.839-1.014,16.172-1.651c0.406,0.434,0.87,0.869,1.42,1.217c8.898,5.536,19.331,13.998,18.375,22.925
		c-1.623,15.099-32.025,29.213-42.545,32.952c-2.29,0.812-4.029,2.753-4.608,5.13c-0.58,2.347,0.087,4.869,1.739,6.637
		c5.507,5.912,15.824,20.606,12.665,28.547c-2.029,5.072-10.636,8.347-24.258,9.187c-3.999,0.232-7.043,3.681-6.782,7.681
		c0.058,1.275,0.463,2.463,1.13,3.449c-0.261,5.912-4.318,22.664-5.825,26.519c-4.289,6.521-9.737,10.172-16.694,11.158
		c-20.316,2.927-48.921-16.113-70.686-33.416C746.503,331.953,765.138,332.909,775.05,322.997z M684.627,148.209
		c-19.07,11.535-46.458,24.46-63.267,24.141c-6.231-10.375-13.129-19.07-20.635-26.026
		C625.272,148.324,659.036,150.208,684.627,148.209z M304.821,216.489c13.737,2.406,27.764,4.289,42.255,5.507l1.246,0.116
		c26.866,2.203,76.889,6.347,89.38,33.532c5.854,12.694,1.043,20.026-6.202,31.126c-4.057,6.202-8.637,13.216-11.129,21.794
		c-4.202,14.491,0.174,22.78,4.579,27.185c4.579,4.55,10.984,6.782,17.911,7.68c-13.013,7.767-30.402,15.882-42.4,20.838
		c-18.375,5.593-31.648,5.014-39.444-1.768c-12.085-10.491-8.608-33.474-8.578-33.706c0.319-2-0.203-4.086-1.507-5.68
		c-1.275-1.593-3.159-2.579-5.188-2.695c-13.65-0.841-22.258-4.115-24.286-9.187c-3.159-7.941,7.158-22.664,12.665-28.518
		c1.652-1.797,2.319-4.289,1.739-6.666c-0.579-2.377-2.29-4.318-4.608-5.13c-10.52-3.738-40.893-17.794-42.516-32.952
		C287.837,229.792,296.503,222.025,304.821,216.489z M520.097,478.658c0.145,0.58,0.26,1.16,0.405,1.71
		c-28.373,22.055-54.775,31.474-78.54,27.91c-23.765-3.536-38.111-19.389-42.197-24.548c-0.783-0.985-1.246-1.622-1.246-1.651
		c-2-2.985-5.912-4.057-9.129-2.522c-1.942,0.928-3.883,1.797-5.825,2.667c-29.938,13.215-57.964,18.317-83.352,15.157
		c-18.287-2.319-31.648-7.883-35.705-14.926c-1.014-1.768-2.145-4.608-0.435-9.39l47.443-51.269l0.406-0.434
		c2.492-2.695,2.579-6.84,0.203-9.622c-2.377-2.811-6.492-3.362-9.535-1.333c-0.87,0.579-2,1.188-3.217,1.767
		c-24.286,11.767-113.521,24.518-141.228,5.159c-5.13-3.565-7.216-7.796-6.608-13.447l96.625-58.196l1.014-0.638
		c3.275-1.971,4.463-6.144,2.695-9.535c-1.768-3.391-5.854-4.84-9.361-3.304c-0.754,0.347-1.536,0.638-2.319,0.957
		c-49.385,20.084-107.783-9.217-148.357-37.648c-13.274-9.303-30.083-32.691-27.04-40.632c0.841-2.202,6.115-4.26,18.201-2.811
		c0.116,0.029,0.203,0.029,0.319,0.029l134.939,10.26c1.015,0.087,1.971-0.058,2.869-0.348c2.638-0.898,4.637-3.275,4.898-6.26
		c0.232-2.637-1.014-5.043-3.014-6.492c-1.015-0.725-2.174-1.217-3.507-1.333c-42.429-4.115-91.727-27.446-99.668-68.919
		c-0.812-4.231-0.434-7.042,1.101-8.375c3.014-2.58,13.129-5.159,47.038,6.81l0.289,0.087c23.476,8.289,46.168,16.056,68.919,22.78
		c16.172,4.782,32.373,9.042,48.893,12.549c-8.782,8.405-12.752,17.331-11.767,26.664c2.203,20.345,28.17,34.72,42.777,41.241
		c-6.318,8.839-14.085,23.243-9.1,35.792c3.796,9.506,13.708,15.418,29.504,17.592c-0.29,10.202,1.275,28.17,13.998,39.241
		c6.956,6.086,16.056,9.129,27.185,9.129c7.796,0,16.607-1.507,26.373-4.521c0.203-0.058,0.406-0.144,0.609-0.202
		c5.158-2.116,48.573-20.2,63.18-35.822c4.84-0.928,8.868-2,11.303-2.724c1.768-0.435,27.359-7.39,47.588-22.461
		C512.649,380.555,510.157,433.824,520.097,478.658z M686.365,722.801c-5.593,84.685-48.023,147.227-73.092,177.252
		c6.086-33.792,7.014-83.642-32.343-106.131c-10.434-5.97-21.707-3.797-30.199,5.825c-5.217,5.883-9.274,14.549-11.332,23.563
		c-29.388-49.124-37.763-101.813-23.417-150.734c3.449-11.767,8.086-23.214,13.795-34.228c-0.347,29.822,3.768,74.802,30.025,90.366
		c1.971,1.159,4.376,1.333,6.492,0.464c2.087-0.899,3.681-2.725,4.231-4.956l0.899-3.652c2.985-12.288,7.97-32.866,17.737-39.009
		c1.623-1.044,2.232-0.754,2.753-0.522c7.014,3.246,17.795,28.402,24.808,75.991c0.406,2.724,2.319,4.984,4.927,5.825
		c0.754,0.261,1.478,0.348,2.232,0.348c1.942,0,3.825-0.754,5.188-2.174c17.795-18.317,42.545-56.659,53.819-93.148
		C685.438,686.11,686.656,704.426,686.365,722.801z M672.367,618.322c0.058,0.116,0.058,0.261,0.087,0.376
		c9.448,29.88-17.418,87.438-43.907,120.883c-5.651-31.474-15.157-64.6-30.576-71.702c-5.333-2.463-11.216-1.942-16.548,1.421
		c-12.375,7.796-18.317,25.387-22.113,39.908c-17.882-22.664-16.085-76.049-13.477-97.032c0.029-0.087,0-0.203,0.029-0.318
		c12.578-19.447,21.736-35.938,23.649-60.079c3.594,1.971,7.274,3.623,11.013,4.898c5.536,1.854,12.231,3.275,19.708,3.275
		c12.404,0,27.069-3.884,42.603-16.028C655.384,568.415,665.238,593.252,672.367,618.322z M671.962,443.793
		c-2.956,41.154-15.592,70.86-37.531,88.307c-15.853,12.607-32.895,16.374-49.269,10.839c-22.577-7.622-42.053-31.735-49.559-61.47
		c-12.81-50.66-8.115-113.609,14.317-192.265c0.609-1.738,1.13-3.565,1.507-5.419c0.145-0.493,0.232-0.986,0.29-1.479
		c0.29-1.797,0.55-3.651,0.609-5.535c0.608-17.041-16.23-27.678-31.097-37.067c-7.651-4.84-15.534-9.825-19.968-14.955l-0.348-0.406
		c-4.289-4.984-7.651-8.868-10.086-12.52c-0.029-0.058-0.058-0.087-0.087-0.145c-4.463-6.752-5.651-12.694-3.478-23.098
		c2-9.622,6.608-18.259,13.737-25.677c15.911-16.549,41.473-23.94,67.441-19.824c20.635,7.129,37.821,26.518,51.066,57.644
		l34.459,101.031C664.282,341.111,675.613,392.785,671.962,443.793z M1108.166,282.771c-39.386,27.591-95.524,55.993-143.952,39.299
		c-2.261-0.783-4.521-1.623-6.753-2.58c-3.478-1.535-7.593-0.116-9.332,3.275c-1.768,3.391-0.608,7.564,2.666,9.534l2.666,1.595
		l95.002,57.239c0.609,5.68-1.478,9.883-6.608,13.476c-25.939,18.085-105.725,8.086-135.779-2.898
		c-3.681-1.362-6.695-2.724-8.665-4.057c-3.043-2.029-7.158-1.449-9.535,1.333s-2.319,6.897,0.174,9.592l2.203,2.435l45.936,50.11
		c1.333,4.405,0.203,7.071-0.783,8.753c-4.203,6.955-17.534,12.491-35.647,14.751c-23.679,2.956-49.675-1.275-77.44-12.636
		c-3.854-1.594-7.767-3.304-11.708-5.188c-3.565-1.681-7.796-0.203-9.564,3.304c-0.029,0.057-1.015,1.913-2.869,4.608
		c-5.014,7.303-16.694,21.128-35.735,25.185c-21.417,4.608-46.313-3.97-74.077-25.445c-1.304-0.986-2.608-2-3.912-3.044
		c-0.435-0.347-0.899-0.637-1.362-0.869c1.536-8.086,2.666-16.635,3.304-25.707c3.71-51.703-7.216-103.407-17.563-143.431
		c9.622,7.594,19.91,13.187,28.75,17.158c1.13,0.956,2.318,2.029,3.652,3.188c21.215,18.549,64.049,56.022,98.364,56.022
		c2.087,0,4.115-0.145,6.115-0.435c11.361-1.593,20.49-7.68,27.098-18.056c0.928-1.449,6.695-19.157,7.593-31.387
		c15.621-2.232,25.446-8.115,29.184-17.563c4.985-12.549-2.782-26.953-9.071-35.764c14.578-6.55,40.545-20.925,42.748-41.27
		c1.072-10.028-3.565-19.592-13.824-28.547c24.084-3.913,47.211-9.535,70.252-16.259c23.794-6.955,47.472-15.041,72.049-23.707
		l0.29-0.087c33.908-11.97,44.023-9.39,47.037-6.811c1.536,1.334,1.913,4.174,1.102,8.405
		c-4.087,21.186-16.491,37.038-36.894,47.182c-20.2,10.028-32.373,15.593-61.586,21.07c-0.609,0.116-1.217,0.232-1.855,0.348
		c-3.768,0.696-6.347,4.231-5.883,8.028c0.377,2.927,2.406,5.246,5.101,6.028c0.812,0.26,1.71,0.376,2.637,0.289l134.968-9.854
		c0.116-0.029,0.232-0.029,0.348-0.058c12.085-1.449,17.36,0.608,18.201,2.84C1138.249,250.079,1121.411,273.468,1108.166,282.771z
		 M681.815,878.722c-3.97,0.377-6.869,3.942-6.492,7.912c0.985,9.825-24.837,64.542-50.37,111.783
		c-3.681,6.811-16.172,50.747-4,67.354c3.246,4.434,7.912,6.782,13.39,6.782c1.304,0,2.666-0.116,4.029-0.405
		c13.911-2.667,26.866-24.142,28.286-26.577c10.115-17.244,14.781-36.923,17.969-53.848c6.753-35.793,8.521-72.628,5.13-106.508
		C689.351,881.215,685.815,878.317,681.815,878.722z M670.396,989.027c-2.985,15.738-7.245,33.88-16.229,49.211
		c-5.565,9.506-14.404,18.896-18.52,19.679c-2.174,0.434-2.579-0.145-3.014-0.724c-6.521-8.869,1.189-44.719,5.072-51.877
		c7.796-14.462,26.432-49.588,39.183-78.801C676.483,947.148,674.309,968.247,670.396,989.027z M557.136,897.039
		c-0.029,0-0.058,0-0.087,0c-3.043,0-5.767,1.913-6.811,4.782c-17.331,47.848-19.968,83.177-7.825,104.943
		c8.057,14.52,19.708,17.302,20.983,17.591c0.492,0.087,1.014,0.145,1.507,0.145c1.014,0,2.058-0.203,2.985-0.638
		c29.706-13.534,4.463-96.712-3.971-121.897C562.932,899.067,560.208,897.068,557.136,897.039z M563.917,1009.082
		c-2.434-1.361-6.144-4.231-9.187-9.97c-5.622-10.636-9.216-31.3,2.087-70.744C566.845,964.827,571.337,1000.301,563.917,1009.082z
		 M565.425,179.567c1.13,3.825-1.014,7.882-4.869,9.013c-5.941,1.826-11.332,2.58-16.143,2.58
		c-18.838,0-29.127-11.709-32.285-19.447c-1.507-3.71,0.26-7.941,3.97-9.448c3.681-1.507,7.883,0.261,9.419,3.913
		c0.754,1.651,7.652,15.564,30.866,8.549C560.208,173.568,564.266,175.741,565.425,179.567z"/>
	<path fill="#FFB24D" d="M964.214,322.07c-2.261-0.783-4.521-1.623-6.753-2.58c-3.478-1.535-7.593-0.116-9.332,3.275
		c-1.768,3.391-0.608,7.564,2.666,9.534l2.666,1.595c-3.043,17.359-13.679,58.34-47.385,67.817
		c-3.681-1.362-6.695-2.724-8.665-4.057c-3.043-2.029-7.158-1.449-9.535,1.333s-2.319,6.897,0.174,9.592l2.203,2.435
		c-7.448,16.027-28.779,53.384-67.933,60.978c-3.854-1.594-7.767-3.304-11.708-5.188c-3.565-1.681-7.796-0.203-9.564,3.304
		c-0.029,0.057-1.015,1.913-2.869,4.608c-23.707,3.246-86.047,10.405-109.812-0.26c-1.304-0.986-2.608-2-3.912-3.044
		c-0.435-0.347-0.899-0.637-1.362-0.869c1.536-8.086,2.666-16.635,3.304-25.707c3.71-51.703-7.216-103.407-17.563-143.431
		c9.622,7.594,19.91,13.187,28.75,17.158c1.13,0.956,2.318,2.029,3.652,3.188c21.215,18.549,64.049,56.022,98.364,56.022
		c2.087,0,4.115-0.145,6.115-0.435c11.361-1.593,20.49-7.68,27.098-18.056c0.928-1.449,6.695-19.157,7.593-31.387
		c15.621-2.232,25.446-8.115,29.184-17.563c4.985-12.549-2.782-26.953-9.071-35.764c14.578-6.55,40.545-20.925,42.748-41.27
		c1.072-10.028-3.565-19.592-13.824-28.547c24.084-3.913,47.211-9.535,70.252-16.259c13.911,7.129,35.271,22.606,21.997,46.052
		c-0.609,0.116-1.217,0.232-1.855,0.348c-3.768,0.696-6.347,4.231-5.883,8.028c0.377,2.927,2.406,5.246,5.101,6.028
		C984.008,265.469,992.674,306.101,964.214,322.07z M600.232,559.953c-7.477,0-14.172-1.421-19.708-3.275
		c-3.738-1.275-7.419-2.927-11.013-4.898c-1.913,24.141-11.071,40.632-23.649,60.079c-0.029,0.115,0,0.231-0.029,0.318
		c-2.608,20.983-4.405,74.368,13.477,97.032c3.796-14.521,9.738-32.112,22.113-39.908c5.333-3.362,11.216-3.884,16.548-1.421
		c15.418,7.101,24.925,40.227,30.576,71.702c26.489-33.445,53.355-91.003,43.907-120.883c-0.029-0.115-0.029-0.26-0.087-0.376
		c-7.13-25.07-16.983-49.906-29.533-74.397C627.301,556.069,612.636,559.953,600.232,559.953z M468.829,341.98
		c-14.607,15.622-58.022,33.706-63.18,35.822c-0.203,0.058-0.406,0.144-0.609,0.202c-9.767,3.014-18.577,4.521-26.373,4.521
		c-11.129,0-20.229-3.043-27.185-9.129c-12.723-11.071-14.288-29.04-13.998-39.241c-15.795-2.174-25.707-8.086-29.504-17.592
		c-4.985-12.549,2.782-26.953,9.1-35.792c-14.607-6.521-40.574-20.896-42.777-41.241c-0.986-9.333,2.985-18.259,11.767-26.664
		c-16.52-3.507-32.721-7.767-48.893-12.549c-14.578,8.549-32.227,24.982-14.172,48.95c2,1.449,3.246,3.855,3.014,6.492
		c-0.261,2.985-2.26,5.362-4.898,6.26c-5.129,18.926-11.158,57.442,19.07,71.151c0.783-0.319,1.565-0.609,2.319-0.957
		c3.507-1.536,7.593-0.087,9.361,3.304c1.768,3.391,0.579,7.565-2.695,9.535l-1.014,0.638c3.681,19.186,15.621,59.703,51.211,66.484
		c1.218-0.579,2.348-1.188,3.217-1.767c3.043-2.029,7.158-1.478,9.535,1.333c2.376,2.782,2.289,6.927-0.203,9.622l-0.406,0.434
		c8.318,17.36,30.982,55.21,72.049,60.427c1.942-0.87,3.884-1.739,5.825-2.667c3.217-1.535,7.129-0.463,9.129,2.522
		c0,0.029,0.464,0.667,1.246,1.651c23.272,3.333,105.986,13.622,120.332-5.072c-9.941-44.834-7.449-98.103,7.622-161.863
		c-20.229,15.07-45.82,22.026-47.588,22.461C477.697,339.981,473.669,341.053,468.829,341.98z M428.892,190.87
		c12.897,2.116,29.793,5.506,42.98,10.086c-0.376-4.463-0.029-9.448,1.188-15.302c0.754-3.652,1.855-7.216,3.246-10.665
		C461.757,172.524,442.687,181.885,428.892,190.87z"/>
	<path fill="#FF4A4A" d="M619.505,200.723c-13.245-31.126-30.431-50.515-51.066-57.644c-25.968-4.116-51.53,3.275-67.441,19.824
		c-7.129,7.419-11.738,16.055-13.737,25.677c-2.174,10.404-0.986,16.346,3.478,23.098c0.029,0.058,0.058,0.087,0.087,0.145
		c2.435,3.652,5.796,7.536,10.086,12.52l0.348,0.406c4.434,5.13,12.317,10.115,19.968,14.955
		c14.868,9.389,31.706,20.026,31.097,37.067c-0.058,1.884-0.318,3.739-0.609,5.535c-0.058,0.493-0.145,0.986-0.29,1.479
		c-0.377,1.855-0.898,3.681-1.507,5.419c-22.432,78.656-27.127,141.605-14.317,192.265c7.507,29.735,26.982,53.848,49.559,61.47
		c16.374,5.535,33.416,1.768,49.269-10.839c21.939-17.447,34.575-47.153,37.531-88.307c3.652-51.008-7.68-102.683-17.998-142.04
		L619.505,200.723z M560.556,188.58c-5.941,1.826-11.332,2.58-16.143,2.58c-18.838,0-29.127-11.709-32.285-19.447
		c-1.507-3.71,0.26-7.941,3.97-9.448c3.681-1.507,7.883,0.261,9.419,3.913c0.754,1.651,7.652,15.564,30.866,8.549
		c3.825-1.159,7.883,1.015,9.042,4.84C566.555,183.392,564.41,187.449,560.556,188.58z M732.997,329.576
		c13.505,2.377,32.141,3.333,42.053-6.579c4.405-4.405,8.753-12.665,4.55-27.185c-2.492-8.578-7.072-15.592-11.1-21.794
		c-7.274-11.1-12.057-18.432-6.231-31.126c12.52-27.156,62.513-31.3,89.38-33.532l1.246-0.116
		c5.449-0.434,10.839-1.014,16.172-1.651c0.406,0.434,0.87,0.869,1.42,1.217c8.898,5.536,19.331,13.998,18.375,22.925
		c-1.623,15.099-32.025,29.213-42.545,32.952c-2.29,0.812-4.029,2.753-4.608,5.13c-0.58,2.347,0.087,4.869,1.739,6.637
		c5.507,5.912,15.824,20.606,12.665,28.547c-2.029,5.072-10.636,8.347-24.258,9.187c-3.999,0.232-7.043,3.681-6.782,7.681
		c0.058,1.275,0.463,2.463,1.13,3.449c-0.261,5.912-4.318,22.664-5.825,26.519c-4.289,6.521-9.737,10.172-16.694,11.158
		C783.367,365.919,754.763,346.879,732.997,329.576z M637.705,1005.315c7.796-14.462,26.432-49.588,39.183-78.801
		c-0.405,20.635-2.579,41.733-6.492,62.513c-2.985,15.738-7.245,33.88-16.229,49.211c-5.565,9.506-14.404,18.896-18.52,19.679
		c-2.174,0.434-2.579-0.145-3.014-0.724C626.112,1048.323,633.822,1012.473,637.705,1005.315z M556.817,928.368
		c10.028,36.459,14.52,71.933,7.1,80.714c-2.434-1.361-6.144-4.231-9.187-9.97C549.108,988.476,545.514,967.813,556.817,928.368z
		 M288.736,237.965c-0.899-8.173,7.767-15.94,16.085-21.476c13.737,2.406,27.764,4.289,42.255,5.507l1.246,0.116
		c26.866,2.203,76.889,6.347,89.38,33.532c5.854,12.694,1.043,20.026-6.202,31.126c-4.057,6.202-8.637,13.216-11.129,21.794
		c-4.202,14.491,0.174,22.78,4.579,27.185c4.579,4.55,10.984,6.782,17.911,7.68c-13.013,7.767-30.402,15.882-42.4,20.838
		c-18.375,5.593-31.648,5.014-39.444-1.768c-12.085-10.491-8.608-33.474-8.578-33.706c0.319-2-0.203-4.086-1.507-5.68
		c-1.275-1.593-3.159-2.579-5.188-2.695c-13.65-0.841-22.258-4.115-24.286-9.187c-3.159-7.941,7.158-22.664,12.665-28.518
		c1.652-1.797,2.319-4.289,1.739-6.666c-0.579-2.377-2.29-4.318-4.608-5.13C320.732,267.179,290.359,253.122,288.736,237.965z"/>
	<path fill="#F9E382" d="M1135.206,242.167c3.043,7.912-13.795,31.3-27.04,40.603c-39.386,27.591-95.524,55.993-143.952,39.299
		c28.46-15.969,19.794-56.601,14.838-73.121c0.812,0.26,1.71,0.376,2.637,0.289l134.968-9.854c0.116-0.029,0.232-0.029,0.348-0.058
		C1129.091,237.878,1134.366,239.936,1135.206,242.167z M981.69,234.545c29.213-5.477,41.386-11.042,61.586-21.07
		c20.403-10.144,32.807-25.996,36.894-47.182c0.811-4.231,0.434-7.071-1.102-8.405c-3.014-2.579-13.129-5.159-47.037,6.811
		l-0.29,0.087c-24.576,8.666-48.255,16.752-72.049,23.707C973.604,195.622,994.963,211.099,981.69,234.545z M906.076,401.712
		c30.054,10.984,109.841,20.983,135.779,2.898c5.13-3.594,7.216-7.796,6.608-13.476l-95.002-57.239
		C950.418,351.254,939.782,392.235,906.076,401.712z M822.319,471.993c27.764,11.361,53.761,15.592,77.44,12.636
		c18.114-2.26,31.445-7.796,35.647-14.751c0.985-1.681,2.116-4.347,0.783-8.753l-45.936-50.11
		C882.804,427.042,861.473,464.399,822.319,471.993z M688.365,474.456c27.764,21.475,52.66,30.054,74.077,25.445
		c19.041-4.057,30.721-17.882,35.735-25.185C774.47,477.963,712.131,485.121,688.365,474.456z M623.881,763.201
		c-0.754,0-1.478-0.087-2.232-0.348c-2.608-0.841-4.521-3.101-4.927-5.825c-7.013-47.589-17.794-72.745-24.808-75.991
		c-0.522-0.232-1.13-0.521-2.753,0.522c-9.766,6.144-14.751,26.721-17.737,39.009l-0.899,3.652c-0.55,2.231-2.145,4.057-4.231,4.956
		c-2.116,0.87-4.521,0.695-6.492-0.464c-26.258-15.564-30.373-60.543-30.025-90.366c-5.709,11.013-10.346,22.461-13.795,34.228
		c-14.346,48.921-5.97,101.61,23.417,150.734c2.058-9.014,6.115-17.679,11.332-23.563c8.492-9.621,19.765-11.795,30.199-5.825
		c39.357,22.489,38.43,72.338,32.343,106.131c25.069-30.025,67.499-92.568,73.092-177.252c0.29-18.375-0.927-36.691-3.478-54.921
		c-11.274,36.488-36.024,74.831-53.819,93.148C627.706,762.448,625.823,763.201,623.881,763.201z M684.627,148.209
		c-25.591,2-59.355,0.115-83.902-1.884c7.506,6.956,14.404,15.651,20.635,26.026C638.169,172.669,665.557,159.743,684.627,148.209z
		 M399.765,483.73c4.086,5.16,18.432,21.012,42.197,24.548c23.765,3.565,50.167-5.854,78.54-27.91
		c-0.145-0.55-0.261-1.13-0.405-1.71C505.751,497.352,423.038,487.063,399.765,483.73z M311.516,421.796l-47.443,51.269
		c-1.71,4.782-0.579,7.623,0.435,9.39c4.057,7.043,17.418,12.607,35.705,14.926c25.388,3.159,53.414-1.942,83.352-15.157
		C342.497,477.006,319.833,439.156,311.516,421.796z M248.161,345.69l-96.625,58.196c-0.609,5.651,1.478,9.883,6.608,13.447
		c27.707,19.36,116.942,6.608,141.228-5.159C263.783,405.393,251.842,364.876,248.161,345.69z M237.177,200.318
		c-22.751-6.724-45.443-14.491-68.919-22.78l-0.289-0.087c-33.909-11.969-44.023-9.39-47.038-6.81
		c-1.536,1.333-1.913,4.144-1.101,8.375c7.941,41.473,57.239,64.804,99.668,68.919c1.333,0.116,2.492,0.609,3.507,1.333
		C204.95,225.3,222.599,208.867,237.177,200.318z M221.121,262.019c-0.898,0.29-1.855,0.435-2.869,0.348l-134.939-10.26
		c-0.116,0-0.203,0-0.319-0.029c-12.085-1.449-17.36,0.609-18.201,2.811c-3.043,7.942,13.766,31.329,27.04,40.632
		c40.574,28.431,98.972,57.732,148.357,37.648C209.964,319.461,215.992,280.945,221.121,262.019z"/>
</g>
</svg>
